<svg width="100" height="20" viewBox="0 0 100 20" fill="none" xmlns="http://www.w3.org/2000/svg">
<path d="M22.9194 0.297363H18.0606L12.7708 19.7235H28.2092L22.9194 0.297363ZM16.6321 16.7976L20.3259 3.23335H20.6547L24.3485 16.7976H16.6328H16.6321Z" fill="#255579"/>
<path d="M12.5726 3.23335H3.19982V8.49938H11.0749V11.4039H3.19982V19.7235H0V0.297363H12.5726V3.23335Z" fill="#255579"/>
<path d="M36.5999 20C32.5385 20 29.7698 18.064 29.7698 13.7339H32.9372C32.9372 16.4147 34.0572 17.1489 36.5999 17.1489H36.751C39.175 17.1489 40.2739 16.4361 40.2739 14.5001C40.2739 12.2235 37.5376 11.7131 35.4044 11.0003C32.0001 9.86203 30.0929 8.35161 30.1577 5.24467C30.2117 1.79767 32.8401 0 36.2443 0H36.4164C40.2841 0 42.9665 1.93595 42.9665 6.29812H39.799C39.799 3.59597 38.7648 2.85113 36.4272 2.85113H36.2551C34.3803 2.85113 33.3677 3.59596 33.3677 5.24467C33.3677 7.21267 35.0914 7.80854 37.0627 8.40441C40.6936 9.4893 43.4623 10.8834 43.4623 14.5001C43.4623 18.1168 40.726 20 36.7719 20H36.5999Z" fill="#255579"/>
<path d="M54.268 1.15597H51.5069V2.70222H53.8223V3.56145H51.5069V6.00967H50.5609V0.297363H54.2572V1.1566H54.268V1.15597Z" fill="#255579"/>
<path d="M59.2575 1.15597H56.5618V2.70222H58.6379V3.56145H56.5618V5.13975H59.2575V5.99899H55.6158V0.297363H59.2575V1.1566V1.15597Z" fill="#255579"/>
<path d="M62.4313 0.296753C63.5837 0.296753 64.3989 0.994449 64.3989 2.39047V3.91535C64.3989 5.31137 63.5837 6.00906 62.4313 6.00906H60.4962V0.296753H62.4313ZM63.4529 2.39047C63.4529 1.43507 63.1373 1.15536 62.4313 1.15536H61.4422V5.13914H62.4313C63.138 5.13914 63.4529 4.84938 63.4529 3.90403V2.37916V2.38984V2.39047Z" fill="#255579"/>
<path d="M69.4214 1.15597H66.7256V2.70222H68.8017V3.56145H66.7256V5.13975H69.4214V5.99899H65.7797V0.297363H69.4214V1.1566V1.15597Z" fill="#255579"/>
<path d="M74.6504 2.1221C74.6504 3.12087 74.2047 3.7004 73.3457 3.86131V3.92542L74.6282 6.00845H73.5844L72.3127 3.91473H71.7477V6.00845H70.8125V0.296143H72.7584C74.0085 0.296143 74.6497 0.886984 74.6497 2.08941V2.12147L74.6504 2.1221ZM73.7266 2.09004C73.7266 1.40303 73.5203 1.15601 72.759 1.15601H71.7483V3.05676H72.759C73.5203 3.05676 73.7266 2.79905 73.7266 2.12272V2.09067V2.09004Z" fill="#255579"/>
<path d="M78.9224 6.00967L78.5199 4.388H76.8241L76.4108 6.00967H75.4109L76.9651 0.297363H78.3783L79.9002 6.00967H78.9218H78.9224ZM77.0419 3.52939H78.3136L77.7263 1.1566H77.6285L77.0413 3.52939H77.0419Z" fill="#255579"/>
<path d="M84.8682 0.296753V1.15599H83.2048V6.00906H82.2595V1.15599H80.5961V0.296753H84.8682Z" fill="#255579"/>
<path d="M89.6513 1.15599H88.2927V5.13977H89.6513V5.99901H86.0096V5.13977H87.3575V1.15599H86.0096V0.296753H89.6513V1.15599Z" fill="#255579"/>
<path d="M92.8803 6.08447C91.728 6.08447 90.9128 5.38677 90.9128 3.99075V2.29428C90.9128 0.898258 91.728 0.200562 92.8803 0.200562H92.9349C94.0873 0.200562 94.9025 0.898258 94.9025 2.29428V3.99075C94.9025 5.38677 94.0873 6.08447 92.9349 6.08447H92.8803ZM92.9349 5.24723C93.6416 5.24723 93.9565 4.9361 93.9565 3.99075V2.29428C93.9565 1.34956 93.6409 1.0378 92.9349 1.0378H92.8803C92.1737 1.0378 91.8588 1.34893 91.8588 2.29428V3.99075C91.8588 4.93547 92.1744 5.24723 92.8803 5.24723H92.9349Z" fill="#255579"/>
<path d="M96.1088 6.00967V0.297363H97.435L98.8483 4.54954H98.9461V0.297363H99.8482V6.00967H98.522L97.1087 1.7575H97.0109V6.00967H96.1088Z" fill="#255579"/>
<path d="M51.7184 11.7219C51.0441 11.7219 50.566 11.314 50.566 10.4981V9.51005C50.566 8.69419 51.0441 8.28625 51.7184 8.28625H51.7507C52.425 8.28625 52.903 8.69419 52.903 9.51005V10.4981C52.903 11.314 52.425 11.7219 51.7507 11.7219H51.7184ZM51.7507 11.2279C52.164 11.2279 52.3488 11.0456 52.3488 10.4975V9.50942C52.3488 8.96195 52.164 8.77904 51.7507 8.77904H51.7184C51.305 8.77904 51.1203 8.96132 51.1203 9.50942V10.4975C51.1203 11.045 51.305 11.2279 51.7184 11.2279H51.7507Z" fill="#255579"/>
<path d="M55.8711 8.84445H54.2623V9.74643H55.6102V10.2405H54.2623V11.6686H53.7189V8.33972H55.8711V8.84445Z" fill="#255579"/>
<path d="M63.6712 12.8704L63.2687 11.2487H61.5729L61.1596 12.8704H60.1597L61.7139 7.15808H63.1271L64.6489 12.8704H63.6706H63.6712ZM61.7907 10.3901H63.0624L62.4751 8.01732H62.3773L61.79 10.3901H61.7907Z" fill="#255579"/>
<path d="M65.4871 12.8704V7.15808H66.5416L67.4438 9.45608H67.5308L68.4329 7.15808H69.4875V12.8704H68.5961V8.73638H68.4983L67.6832 10.744H67.2483L66.4439 8.73638H66.3461V12.8704H65.4547H65.4871Z" fill="#255579"/>
<path d="M74.4986 8.0173H71.8029V9.56354H73.879V10.4228H71.8029V12.0011H74.4986V12.8603H70.8569V7.15869H74.4986V8.01793V8.0173Z" fill="#255579"/>
<path d="M79.7377 8.98342C79.7377 9.9822 79.292 10.5617 78.433 10.7226V10.7867L79.7154 12.8698H78.6717L77.4 10.7761H76.835V12.8698H75.8998V7.15747H77.8457C79.0958 7.15747 79.737 7.74831 79.737 8.95074V8.9828L79.7377 8.98342ZM78.8139 8.95137C78.8139 8.26436 78.6076 8.01733 77.8463 8.01733H76.8356V9.91809H77.8463C78.6076 9.91809 78.8139 9.66038 78.8139 8.98405V8.952V8.95137Z" fill="#255579"/>
<path d="M84.5641 8.01732H83.2054V12.0011H84.5641V12.8603H80.9224V12.0011H82.2702V8.01732H80.9224V7.15808H84.5641V8.01732Z" fill="#255579"/>
<path d="M87.8038 12.9564C86.6515 12.9564 85.8363 12.2587 85.8363 10.8627V9.16623C85.8363 7.77021 86.6515 7.07251 87.8038 7.07251H87.8584C89.0107 7.07251 89.8259 7.77021 89.8259 9.16623H88.8799C88.8799 8.22151 88.5644 7.90975 87.8584 7.90975H87.8038C87.0972 7.90975 86.7823 8.22088 86.7823 9.16623V10.8627C86.7823 11.8074 87.0978 12.1192 87.8038 12.1192H87.8584C88.565 12.1192 88.8799 11.808 88.8799 10.8627H89.8259C89.8259 12.2587 89.0101 12.9564 87.8584 12.9564H87.8038Z" fill="#255579"/>
<path d="M94.1736 12.8704L93.7711 11.2487H92.0753L91.6627 12.8704H90.6627L92.2169 7.15808H93.6302L95.152 12.8704H94.1736ZM92.2931 10.3901H93.5648L92.9775 8.01732H92.8797L92.2925 10.3901H92.2931Z" fill="#255579"/>
<path d="M96.1196 12.8704V7.15808H97.4459L98.8484 11.4103H98.9461V7.15808H99.8483V12.8704H98.5328L97.1196 8.61821H97.0218V12.8704H96.1196Z" fill="#255579"/>
<path d="M52.4744 19.8235C51.279 19.8235 50.4631 19.2546 50.4631 17.9768H51.3977C51.3977 18.7606 51.724 18.9862 52.4738 18.9862H52.517C53.2344 18.9862 53.5499 18.782 53.5499 18.2024C53.5499 17.5368 52.7455 17.3866 52.1151 17.1716C51.1152 16.8385 50.5495 16.3878 50.5717 15.4751C50.5825 14.4657 51.3653 13.9396 52.3652 13.9396H52.4198C53.5506 13.9396 54.3442 14.5084 54.3442 15.7863H53.409C53.409 14.9918 53.1049 14.7768 52.4198 14.7768H52.3652C51.811 14.7768 51.517 14.9918 51.517 15.4852C51.517 16.0653 52.0281 16.2369 52.604 16.4192C53.6693 16.741 54.4845 17.1496 54.4845 18.2125C54.4845 19.2754 53.6801 19.8342 52.517 19.8342H52.4738V19.8235H52.4744Z" fill="#255579"/>
<path d="M57.4748 19.8191C56.3225 19.8191 55.5073 19.1214 55.5073 17.7254V16.0289C55.5073 14.6329 56.3225 13.9352 57.4748 13.9352H57.5294C58.6817 13.9352 59.4969 14.6329 59.4969 16.0289H58.551C58.551 15.0842 58.2246 14.7724 57.5294 14.7724H57.4748C56.7682 14.7724 56.4533 15.0836 56.4533 16.0289V17.7254C56.4533 18.6701 56.7796 18.9818 57.4748 18.9818H57.5294C58.2361 18.9818 58.551 18.6707 58.551 17.7254H59.4969C59.4969 19.1214 58.6817 19.8191 57.5294 19.8191H57.4748Z" fill="#255579"/>
<path d="M64.3017 14.8786H62.9431V18.8624H64.3017V19.7217H60.66V18.8624H62.0079V14.8786H60.66V14.0194H64.3017V14.8786Z" fill="#255579"/>
<path d="M69.4868 14.8786H66.7911V16.4248H68.8671V17.284H66.7911V18.8624H69.4868V19.7216H65.8451V14.0093H69.4868V14.8792V14.8786Z" fill="#255579"/>
<path d="M70.7153 19.7323V14.02H72.0416L73.4441 18.2722H73.5418V14.02H74.444V19.7323H73.1285L71.7153 15.4802H71.6175V19.7323H70.7153Z" fill="#255579"/>
<path d="M79.7916 14.02V14.8793H78.1282V19.7323H77.1822V14.8793H75.5188V14.02H79.7909H79.7916Z" fill="#255579"/>
<path d="M84.5641 14.8786H83.2054V18.8624H84.5641V19.7217H80.9224V18.8624H82.2702V14.8786H80.9224V14.0194H84.5641V14.8786Z" fill="#255579"/>
<path d="M87.8254 19.8177C86.6299 19.8177 85.8147 19.2489 85.8147 17.971H86.7492C86.7492 18.7549 87.0756 18.9805 87.8254 18.9805H87.8685C88.5752 18.9805 88.9015 18.7762 88.9015 18.1967C88.9015 17.5311 88.0971 17.3808 87.4667 17.1659C86.4661 16.8327 85.9118 16.3821 85.9233 15.4694C85.9448 14.4599 86.7169 13.9338 87.7168 13.9338H87.7714C88.9129 13.9338 89.6957 14.5027 89.6957 15.7805H88.7612C88.7612 14.986 88.4564 14.7711 87.772 14.7711H87.7174C87.1632 14.7711 86.8692 14.986 86.8692 15.4795C86.8692 16.0596 87.3803 16.2312 87.9562 16.4135C89.0215 16.7353 89.8367 17.1439 89.8367 18.2068C89.8367 19.2696 89.0323 19.8284 87.8692 19.8284H87.826V19.8177H87.8254Z" fill="#255579"/>
<path d="M95.0327 14.02V14.8793H93.3693V19.7323H92.4233V14.8793H90.7599V14.02H95.032H95.0327Z" fill="#255579"/>
<path d="M97.9893 19.8177C96.7939 19.8177 95.978 19.2489 95.978 17.971H96.9132C96.9132 18.7549 97.2395 18.9805 97.9893 18.9805H98.0325C98.7391 18.9805 99.0655 18.7762 99.0655 18.1967C99.0655 17.5311 98.2611 17.3808 97.6306 17.1659C96.6301 16.8327 96.0758 16.3821 96.0872 15.4694C96.1088 14.4599 96.8808 13.9338 97.8808 13.9338H97.9354C99.0769 13.9338 99.8597 14.5027 99.8597 15.7805H98.9245C98.9245 14.986 98.6204 14.7711 97.9354 14.7711H97.8808C97.3259 14.7711 97.0326 14.986 97.0326 15.4795C97.0326 16.0596 97.5437 16.2312 98.1195 16.4135C99.1848 16.7353 100 17.1439 100 18.2068C100 19.2696 99.1956 19.8284 98.0325 19.8284H97.9893V19.8177Z" fill="#255579"/>
</svg>
