<svg width="50" height="20" viewBox="0 0 50 20" fill="none" xmlns="http://www.w3.org/2000/svg">
<path d="M3.80487 0.955409H1.04376V2.50165H3.35918V3.36089H1.04376V5.80911H0.0977783V0.0968018H3.79408V0.956037H3.80487V0.955409Z" fill="#255579"/>
<path d="M8.79441 0.955409H6.09869V2.50165H8.17477V3.36089H6.09869V4.93919H8.79441V5.79843H5.15271V0.0968018H8.79441V0.956037V0.955409Z" fill="#255579"/>
<path d="M11.9682 0.0961914C13.1205 0.0961914 13.9357 0.793888 13.9357 2.18991V3.71478C13.9357 5.11081 13.1205 5.8085 11.9682 5.8085H10.0331V0.0961914H11.9682ZM12.9897 2.18991C12.9897 1.2345 12.6742 0.954798 11.9682 0.954798H10.9791V4.93858H11.9682C12.6748 4.93858 12.9897 4.64882 12.9897 3.70347V2.1786V2.18928V2.18991Z" fill="#255579"/>
<path d="M18.9582 0.955409H16.2625V2.50165H18.3386V3.36089H16.2625V4.93919H18.9582V5.79843H15.3165V0.0968018H18.9582V0.956037V0.955409Z" fill="#255579"/>
<path d="M24.1872 1.92153C24.1872 2.92031 23.7415 3.49984 22.8825 3.66075V3.72486L24.165 5.80789H23.1213L21.8496 3.71417H21.2845V5.80789H20.3494V0.0955811H22.2953C23.5454 0.0955811 24.1866 0.686422 24.1866 1.88885V1.92091L24.1872 1.92153ZM23.2635 1.88948C23.2635 1.20247 23.0571 0.955445 22.2959 0.955445H21.2852V2.8562H22.2959C23.0571 2.8562 23.2635 2.59849 23.2635 1.92216V1.89011V1.88948Z" fill="#255579"/>
<path d="M28.4593 5.80911L28.0568 4.18744H26.361L25.9477 5.80911H24.9478L26.5019 0.0968018H27.9152L29.437 5.80911H28.4587H28.4593ZM26.5788 3.32883H27.8504L27.2632 0.956037H27.1654L26.5781 3.32883H26.5788Z" fill="#255579"/>
<path d="M34.4051 0.0961914V0.955427H32.7417V5.8085H31.7963V0.955427H30.1329V0.0961914H34.4051Z" fill="#255579"/>
<path d="M39.1882 0.955427H37.8296V4.93921H39.1882V5.79844H35.5465V4.93921H36.8944V0.955427H35.5465V0.0961914H39.1882V0.955427Z" fill="#255579"/>
<path d="M42.4172 5.8839C41.2649 5.8839 40.4497 5.18621 40.4497 3.79019V2.09372C40.4497 0.697696 41.2649 0 42.4172 0H42.4718C43.6241 0 44.4393 0.697696 44.4393 2.09372V3.79019C44.4393 5.18621 43.6241 5.8839 42.4718 5.8839H42.4172ZM42.4718 5.04667C43.1784 5.04667 43.4933 4.73553 43.4933 3.79019V2.09372C43.4933 1.149 43.1778 0.837235 42.4718 0.837235H42.4172C41.7106 0.837235 41.3957 1.14837 41.3957 2.09372V3.79019C41.3957 4.73491 41.7112 5.04667 42.4172 5.04667H42.4718Z" fill="#255579"/>
<path d="M45.6456 5.80911V0.0968018H46.9719L48.3852 4.34898H48.4829V0.0968018H49.3851V5.80911H48.0588L46.6456 1.55694H46.5478V5.80911H45.6456Z" fill="#255579"/>
<path d="M1.25522 11.5214C0.580975 11.5214 0.102905 11.1134 0.102905 10.2976V9.30949C0.102905 8.49363 0.580975 8.08569 1.25522 8.08569H1.28759C1.96184 8.08569 2.43991 8.49363 2.43991 9.30949V10.2976C2.43991 11.1134 1.96184 11.5214 1.28759 11.5214H1.25522ZM1.28759 11.0273C1.7009 11.0273 1.88566 10.8451 1.88566 10.297V9.30886C1.88566 8.76139 1.7009 8.57848 1.28759 8.57848H1.25522C0.841912 8.57848 0.657158 8.76076 0.657158 9.30886V10.297C0.657158 10.8444 0.841912 11.0273 1.25522 11.0273H1.28759Z" fill="#255579"/>
<path d="M5.408 8.64389H3.7992V9.54587H5.14706V10.0399H3.7992V11.468H3.25574V8.13916H5.408V8.64389Z" fill="#255579"/>
<path d="M13.2081 12.6698L12.8056 11.0482H11.1098L10.6965 12.6698H9.69653L11.2507 6.95752H12.664L14.1858 12.6698H13.2074H13.2081ZM11.3275 10.1895H12.5992L12.012 7.81675H11.9142L11.3269 10.1895H11.3275Z" fill="#255579"/>
<path d="M15.024 12.6698V6.95752H16.0785L16.9807 9.25552H17.0676L17.9698 6.95752H19.0244V12.6698H18.133V8.53582H18.0352L17.22 10.5434H16.7851L15.9807 8.53582H15.8829V12.6698H14.9916H15.024Z" fill="#255579"/>
<path d="M24.0355 7.81673H21.3398V9.36298H23.4158V10.2222H21.3398V11.8005H24.0355V12.6598H20.3938V6.95813H24.0355V7.81736V7.81673Z" fill="#255579"/>
<path d="M29.2745 8.78286C29.2745 9.78164 28.8288 10.3612 27.9698 10.5221V10.5862L29.2523 12.6692H28.2086L26.9369 10.5755H26.3718V12.6692H25.4366V6.95691H27.3826C28.6327 6.95691 29.2739 7.54775 29.2739 8.75018V8.78223L29.2745 8.78286ZM28.3508 8.75081C28.3508 8.0638 28.1444 7.81677 27.3832 7.81677H26.3725V9.71752H27.3832C28.1444 9.71752 28.3508 9.45982 28.3508 8.78349V8.75144V8.75081Z" fill="#255579"/>
<path d="M34.1009 7.81675H32.7423V11.8005H34.1009V12.6598H30.4592V11.8005H31.8071V7.81675H30.4592V6.95752H34.1009V7.81675Z" fill="#255579"/>
<path d="M37.3407 12.7559C36.1884 12.7559 35.3732 12.0582 35.3732 10.6621V8.96567C35.3732 7.56964 36.1884 6.87195 37.3407 6.87195H37.3953C38.5476 6.87195 39.3628 7.56964 39.3628 8.96567H38.4168C38.4168 8.02095 38.1013 7.70918 37.3953 7.70918H37.3407C36.634 7.70918 36.3191 8.02032 36.3191 8.96567V10.6621C36.3191 11.6069 36.6347 11.9186 37.3407 11.9186H37.3953C38.1019 11.9186 38.4168 11.6075 38.4168 10.6621H39.3628C39.3628 12.0582 38.547 12.7559 37.3953 12.7559H37.3407Z" fill="#255579"/>
<path d="M43.7105 12.6698L43.308 11.0482H41.6122L41.1995 12.6698H40.1996L41.7538 6.95752H43.167L44.6889 12.6698H43.7105ZM41.83 10.1895H43.1016L42.5144 7.81675H42.4166L41.8293 10.1895H41.83Z" fill="#255579"/>
<path d="M45.6565 12.6698V6.95752H46.9828L48.3852 11.2097H48.483V6.95752H49.3852V12.6698H48.0697L46.6564 8.41765H46.5587V12.6698H45.6565Z" fill="#255579"/>
<path d="M2.01131 19.6229C0.815822 19.6229 0 19.0541 0 17.7762H0.934548C0.934548 18.56 1.26088 18.7857 2.01067 18.7857H2.05385C2.77127 18.7857 3.08681 18.5814 3.08681 18.0019C3.08681 17.3362 2.28241 17.186 1.65197 16.971C0.652027 16.6379 0.0863418 16.1872 0.108563 15.2746C0.119356 14.2651 0.902168 13.739 1.90211 13.739H1.95671C3.08744 13.739 3.88105 14.3079 3.88105 15.5857H2.94586C2.94586 14.7912 2.64175 14.5762 1.95671 14.5762H1.90211C1.34786 14.5762 1.05391 14.7912 1.05391 15.2846C1.05391 15.8648 1.56499 16.0364 2.14083 16.2187C3.20616 16.5405 4.02136 16.949 4.02136 18.0119C4.02136 19.0748 3.21696 19.6336 2.05385 19.6336H2.01067V19.6229H2.01131Z" fill="#255579"/>
<path d="M7.0117 19.6185C5.85938 19.6185 5.04419 18.9208 5.04419 17.5248V15.8283C5.04419 14.4323 5.85938 13.7346 7.0117 13.7346H7.06629C8.21861 13.7346 9.0338 14.4323 9.0338 15.8283H8.08783C8.08783 14.8836 7.76149 14.5719 7.06629 14.5719H7.0117C6.30507 14.5719 5.99017 14.883 5.99017 15.8283V17.5248C5.99017 18.4695 6.3165 18.7813 7.0117 18.7813H7.06629C7.77292 18.7813 8.08783 18.4702 8.08783 17.5248H9.0338C9.0338 18.9208 8.21861 19.6185 7.06629 19.6185H7.0117Z" fill="#255579"/>
<path d="M13.8386 14.6781H12.4799V18.6619H13.8386V19.5211H10.1969V18.6619H11.5448V14.6781H10.1969V13.8188H13.8386V14.6781Z" fill="#255579"/>
<path d="M19.0237 14.678H16.3279V16.2243H18.404V17.0835H16.3279V18.6618H19.0237V19.521H15.382V13.8087H19.0237V14.6786V14.678Z" fill="#255579"/>
<path d="M20.2522 19.5318V13.8195H21.5785L22.9809 18.0716H23.0787V13.8195H23.9809V19.5318H22.6654L21.2521 15.2796H21.1544V19.5318H20.2522Z" fill="#255579"/>
<path d="M29.3284 13.8195V14.6787H27.665V19.5318H26.7191V14.6787H25.0557V13.8195H29.3278H29.3284Z" fill="#255579"/>
<path d="M34.1009 14.6781H32.7423V18.6619H34.1009V19.5211H30.4592V18.6619H31.8071V14.6781H30.4592V13.8188H34.1009V14.6781Z" fill="#255579"/>
<path d="M37.3622 19.6172C36.1668 19.6172 35.3516 19.0483 35.3516 17.7705H36.2861C36.2861 18.5543 36.6124 18.7799 37.3622 18.7799H37.4054C38.112 18.7799 38.4384 18.5757 38.4384 17.9961C38.4384 17.3305 37.634 17.1803 37.0035 16.9653C36.003 16.6322 35.4487 16.1815 35.4601 15.2688C35.4817 14.2594 36.2537 13.7333 37.2537 13.7333H37.3083C38.4498 13.7333 39.2326 14.3021 39.2326 15.58H38.2981C38.2981 14.7855 37.9933 14.5705 37.3089 14.5705H37.2543C36.7001 14.5705 36.4061 14.7855 36.4061 15.2789C36.4061 15.8591 36.9172 16.0306 37.493 16.2129C38.5584 16.5347 39.3736 16.9433 39.3736 18.0062C39.3736 19.0691 38.5692 19.6279 37.406 19.6279H37.3629V19.6172H37.3622Z" fill="#255579"/>
<path d="M44.5695 13.8195V14.6787H42.9061V19.5318H41.9601V14.6787H40.2968V13.8195H44.5689H44.5695Z" fill="#255579"/>
<path d="M47.5262 19.6172C46.3307 19.6172 45.5149 19.0483 45.5149 17.7705H46.4501C46.4501 18.5543 46.7764 18.7799 47.5262 18.7799H47.5694C48.276 18.7799 48.6023 18.5757 48.6023 17.9961C48.6023 17.3305 47.7979 17.1803 47.1675 16.9653C46.1669 16.6322 45.6127 16.1815 45.6241 15.2688C45.6457 14.2594 46.4177 13.7333 47.4176 13.7333H47.4722C48.6138 13.7333 49.3966 14.3021 49.3966 15.58H48.4614C48.4614 14.7855 48.1573 14.5705 47.4722 14.5705H47.4176C46.8628 14.5705 46.5694 14.7855 46.5694 15.2789C46.5694 15.8591 47.0805 16.0306 47.6564 16.2129C48.7217 16.5347 49.5369 16.9433 49.5369 18.0062C49.5369 19.0691 48.7325 19.6279 47.5694 19.6279H47.5262V19.6172Z" fill="#255579"/>
</svg>
